<svg id="Calque_1" xmlns="http://www.w3.org/2000/svg" version="1.1" viewBox="0 0 98.32 55.6">
  <path d="M12.81,3.1v6.32h-1.93v-4.14c0-2.39-1.67-2.77-1.67-2.77-1.1.58-1.76,1.76-1.67,3v3.88h-1.93v-3.9c.09-1.24-.56-2.42-1.66-3,0,0-1.67.38-1.67,2.77v4.14H.35V3.1h.85C1.71,1.77,2.69.67,3.95,0c1.14.78,2.05,1.84,2.63,3.09.58-1.25,1.49-2.31,2.62-3.09,1.26.66,2.24,1.76,2.75,3.09h.86ZM13.96,10h1.5L20.93,0h-1.5l-5.47,10ZM1.13,17.12c.55,0,1-.45,1-1s-.45-1-1-1-1,.45-1,1,.45,1,1,1ZM.35,24.22h1.55v-6.29H.35v6.29ZM3.61,24.22h1.59v-2.51c0-1.66.69-2.56,1.44-2.56.52,0,.9.29.9,1v4h1.55v-4.42c.08-.97-.65-1.83-1.63-1.9-.1,0-.21,0-.31,0-.79.02-1.52.44-1.95,1.11v-1h-1.59v6.28ZM12.74,24.32c1.1.08,2.06-.74,2.14-1.84,0-.05,0-.1,0-.16,0-.94-.64-1.45-1.54-1.78-1.06-.38-1.28-.61-1.28-.88.04-.3.31-.52.61-.48.41,0,.79.2,1,.55l.92-.85c-.44-.67-1.2-1.05-2-1-1.02-.08-1.91.67-2,1.69,0,.02,0,.05,0,.07.07.89.72,1.62,1.6,1.8.67.26,1.3.52,1.3.95-.01.35-.31.63-.66.61-.02,0-.04,0-.06,0-.59-.02-1.1-.43-1.25-1l-1.33.63c.36,1.07,1.41,1.77,2.54,1.69ZM18.65,24.32c.35,0,.69-.08,1-.22l-.36-1.25c-.18.1-.39.15-.6.15-.53,0-.83-.25-.83-1v-2.75h1.67v-1.32h-1.65v-2.55l-1.54,1v1.58h-1v1.32h1v2.72c-.13,1.15.69,2.18,1.83,2.32.16.02.32.02.48,0ZM21.52,17.12c.55,0,1-.45,1-1s-.45-1-1-1-1,.45-1,1,.45,1,1,1ZM20.74,24.22h1.55v-6.29h-1.55v6.29ZM26.56,24.32c.35,0,.69-.08,1-.22l-.36-1.25c-.18.1-.39.15-.6.15-.53,0-.83-.25-.83-1v-2.75h1.66v-1.32h-1.63v-2.55l-1.55,1v1.58h-1v1.32h1v2.72c-.13,1.15.69,2.18,1.83,2.32.16.02.32.02.48,0ZM30.35,24.32c.81,0,1.56-.43,2-1.11v1h1.55v-6.28h-1.6v2.51c0,1.66-.69,2.56-1.44,2.56-.52,0-.9-.29-.9-1v-4h-1.55v4.5c-.04.97.72,1.79,1.69,1.83.08,0,.17,0,.25,0ZM38.12,24.32c.35,0,.69-.08,1-.22l-.36-1.25c-.17.09-.36.15-.56.15-.53,0-.83-.25-.83-1v-2.75h1.67v-1.32h-1.69v-2.55l-1.55,1v1.58h-1v1.32h1v2.72c-.13,1.15.68,2.19,1.83,2.32.16.02.33.02.49,0ZM43.31,24.22h1.55v-2.31c0-1.87.6-2.76,1.36-2.76.46,0,.77.24.77.88v4.19h1.55v-2.44c0-1.78.62-2.63,1.37-2.63.46,0,.77.24.77.88v4.19h1.52v-4.46c.1-.96-.59-1.82-1.56-1.93-.1-.01-.21-.01-.31,0-.83.04-1.58.54-1.93,1.3-.21-.79-.94-1.34-1.76-1.3-.76,0-1.46.44-1.81,1.11v-1h-1.52v6.28ZM59.58,20.94c.11-1.6-1.1-2.99-2.7-3.1-.08,0-.15,0-.23,0-1.66,0-3,1.33-3.01,2.99,0,.09,0,.17.01.26-.13,1.65,1.1,3.1,2.75,3.23.08,0,.17,0,.25,0,1.25.09,2.41-.66,2.86-1.83l-1.25-.49c-.26.61-.86,1.01-1.53,1-.8.04-1.48-.57-1.53-1.37,0-.02,0-.03,0-.05h4.34l.04-.64ZM55.27,20.35c.1-.68.69-1.19,1.38-1.2.69,0,1.27.52,1.35,1.2h-2.73ZM58.97,15.35h-2.1l-.83,1.95h1.16l1.77-1.95ZM60.97,24.19h1.55v-2.28c0-1.87.6-2.76,1.36-2.76.46,0,.78.24.78.88v4.19h1.54v-2.44c0-1.78.62-2.63,1.37-2.63.46,0,.77.24.77.88v4.19h1.56v-4.46c.1-.96-.59-1.82-1.56-1.93-.1-.01-.21-.01-.31,0-.83.04-1.58.54-1.93,1.3-.2-.8-.94-1.34-1.76-1.3-.76,0-1.46.44-1.81,1.11v-1h-1.55v6.25ZM74.48,24.29c1.65.12,3.09-1.13,3.2-2.78.01-.15,0-.31,0-.46,0-1.77-1.43-3.2-3.2-3.2s-3.2,1.43-3.2,3.2c-.12,1.68,1.14,3.14,2.82,3.27.13,0,.26.01.39,0v-.03ZM74.48,22.97c-1,0-1.57-.89-1.57-1.92s.57-1.93,1.57-1.93,1.58.89,1.58,1.93c.13.93-.51,1.8-1.45,1.94-.04,0-.08.01-.12.01v-.03ZM79.83,17.09c.55,0,1-.45,1-1s-.45-1-1-1-1,.45-1,1,.45,1,1,1ZM79.05,24.19h1.55v-6.26h-1.54v6.26ZM82.31,24.19h1.55v-2.19c0-2,.79-2.78,1.69-2.78.23,0,.45.06.65.18l.29-1.4c-.25-.08-.5-.12-.76-.12-.77.02-1.48.45-1.86,1.12v-1h-1.55v6.19ZM92.85,20.91c.11-1.6-1.1-2.99-2.7-3.1-.08,0-.15,0-.23,0-1.66,0-3,1.33-3.01,2.99,0,.09,0,.17.01.26-.13,1.65,1.1,3.1,2.75,3.23.08,0,.17,0,.25,0,1.25.09,2.41-.66,2.86-1.83l-1.24-.46c-.26.61-.86,1.01-1.52,1-.8.03-1.47-.6-1.5-1.4,0,0,0-.01,0-.02h4.34v-.67ZM88.54,20.32c.1-.68.69-1.19,1.38-1.2.69,0,1.27.52,1.35,1.2h-2.73ZM96.17,24.32c1.1.08,2.06-.74,2.14-1.84,0-.05,0-.1,0-.16,0-.94-.63-1.45-1.53-1.78-1.07-.38-1.29-.61-1.29-.88.04-.3.31-.52.61-.48.41,0,.79.2,1,.55l.93-.85c-.44-.67-1.2-1.05-2-1-1.01-.09-1.91.66-1.99,1.67,0,.03,0,.06,0,.09.04.88.65,1.63,1.5,1.85.66.26,1.3.52,1.3.95-.04.32-.32.56-.64.56-.59-.03-1.09-.43-1.25-1l-1.23.67c.37,1.04,1.38,1.71,2.48,1.65h-.03ZM2.75,39.15c.64.05,1.26-.24,1.65-.75v.65h1.55v-8.85h-1.55v3.13c-.43-.45-1.03-.7-1.65-.68-1.77,0-2.75,1.35-2.75,3.25s.98,3.25,2.75,3.25ZM3.09,37.82c-.81,0-1.46-.67-1.46-1.92s.65-1.9,1.46-1.9,1.45.67,1.45,1.92-.64,1.9-1.45,1.9ZM13.3,35.76c.1-1.61-1.11-3-2.72-3.1-.07,0-.14,0-.21,0-1.66,0-3,1.33-3.01,2.99,0,.09,0,.17.01.26-.14,1.65,1.09,3.1,2.74,3.24.09,0,.17.01.26.01,1.24.07,2.39-.68,2.83-1.84l-1.25-.46c-.26.61-.86,1.01-1.52,1-.8.03-1.47-.6-1.5-1.4,0,0,0-.01,0-.02h4.37v-.67ZM8.99,35.18c.11-.68.69-1.17,1.38-1.18.69,0,1.27.51,1.35,1.2l-2.73-.02ZM17.8,39.05h1.55v-8.85h-1.55v8.85ZM20.61,33.25h1.15l1.86-3h-2l-1.01,3ZM29.2,35.76c.1-1.62-1.13-3.01-2.74-3.1-.07,0-.13,0-.2,0-1.66,0-3,1.33-3.01,2.99,0,.09,0,.17.01.26-.14,1.65,1.09,3.1,2.74,3.24.09,0,.17.01.26.01,1.28.12,2.49-.63,2.94-1.84l-1.25-.46c-.25.61-.86,1.01-1.52,1-.8.03-1.47-.6-1.5-1.4,0,0,0-.01,0-.02h4.27v-.67ZM24.89,35.18c.11-.69.71-1.19,1.4-1.18.69,0,1.27.51,1.35,1.2l-2.75-.02ZM28.58,30.18h-2.1l-.83,1.95h1.15l1.78-1.95ZM32.99,39.13c.64.05,1.26-.23,1.65-.75v.65h1.56v-8.83h-1.53v3.13c-.42-.46-1.03-.7-1.65-.68-1.77,0-2.75,1.31-2.75,3.25s.98,3.25,2.75,3.25l-.03-.02ZM33.33,37.8c-.81,0-1.46-.67-1.46-1.92s.68-1.88,1.49-1.88,1.45.67,1.45,1.92-.61,1.9-1.45,1.9l-.03-.02ZM38.71,31.92c.55,0,1-.45,1-1s-.45-1-1-1-1,.45-1,1c-.01.55.43,1.01.98,1.02.02,0,.03,0,.05,0l-.03-.02ZM37.94,39.03h1.54v-6.3h-1.51l-.03,6.3ZM43.76,39.13c.35,0,.69-.08,1-.23l-.36-1.25c-.18.11-.39.16-.6.15-.53,0-.83-.25-.83-1v-2.72h1.67v-1.33h-1.62v-2.55l-1.55,1v1.57h-1v1.33h1v2.74c-.12,1.15.71,2.19,1.87,2.31.15.02.3.02.45,0l-.03-.02ZM46.63,31.92c.55,0,1-.45,1-1s-.45-1-1-1-1,.45-1,1c-.01.55.43,1.01.98,1.02.02,0,.03,0,.05,0l-.03-.02ZM45.85,39.03h1.55v-6.3h-1.52l-.03,6.3ZM51.97,39.13c1.79.03,3.27-1.4,3.3-3.2s-1.4-3.27-3.2-3.3c-1.79-.03-3.27,1.4-3.3,3.2,0,.02,0,.03,0,.05-.12,1.69,1.15,3.15,2.84,3.27.13,0,.26.01.39,0l-.03-.02ZM51.97,37.8c-1,0-1.57-.88-1.57-1.92s.6-1.88,1.6-1.88,1.58.88,1.58,1.92-.58,1.9-1.58,1.9l-.03-.02ZM56.57,39.03h1.63v-2.49c0-1.66.68-2.56,1.43-2.56.53,0,.9.28.9,1v4h1.55v-4.5c.08-.97-.65-1.83-1.63-1.9-.1,0-.21,0-.31,0-.81.04-1.54.48-1.94,1.18v-1h-1.6l-.03,6.27ZM3.07,53.15c1.25.1,2.42-.63,2.87-1.8l-1.39-.56c-.24.61-.83,1-1.48,1-1,0-1.44-.82-1.44-1.93s.47-1.86,1.44-1.86c.65,0,1.24.39,1.48,1l1.39-.57c-.46-1.17-1.62-1.9-2.87-1.8-1.79.14-3.14,1.71-2.99,3.51.13,1.6,1.4,2.87,2.99,2.99v.02ZM10.07,53.15c1.79,0,3.25-1.46,3.25-3.25s-1.46-3.25-3.25-3.25-3.25,1.46-3.25,3.25,1.46,3.25,3.25,3.25ZM10.07,51.83c-1,0-1.58-.89-1.58-1.93-.11-.94.57-1.79,1.51-1.89.04,0,.08,0,.11,0,.94.07,1.65.89,1.58,1.83,0,.03,0,.06,0,.09,0,1.02-.58,1.91-1.57,1.91h-.04ZM14.66,53.05h1.55v-2.51c0-1.66.69-2.56,1.44-2.56.52,0,.9.29.9,1v4h1.54v-4.5c.04-.98-.73-1.8-1.7-1.83-.06,0-.12,0-.19,0-.8.02-1.53.44-1.95,1.12v-1h-1.55l-.04,6.28ZM24.26,53.15c.35,0,.69-.08,1-.22l-.36-1.25c-.18.1-.39.15-.6.15-.53,0-.83-.25-.83-1v-2.75h1.73v-1.33h-1.66v-2.54l-1.55,1v1.57h-1v1.33h1v2.75c-.12,1.15.72,2.17,1.87,2.29.15.02.3.01.44,0h-.04ZM31.67,49.77c.1-1.61-1.12-3.01-2.73-3.11-.07,0-.14,0-.21,0-1.79.14-3.14,1.71-2.99,3.51.13,1.6,1.4,2.87,2.99,2.99,1.26.09,2.42-.66,2.87-1.83l-1.25-.47c-.26.61-.87,1.01-1.53,1-.81.02-1.48-.62-1.5-1.43h4.35v-.65ZM27.36,49.18c.11-.69.71-1.19,1.41-1.18.69,0,1.28.51,1.35,1.2l-2.76-.02ZM33.07,53.05h1.55v-2.31c0-1.87.6-2.76,1.36-2.76.46,0,.77.24.77.87v4.2h1.55v-2.45c0-1.77.61-2.62,1.36-2.62.47,0,.78.24.78.87v4.2h1.55v-4.46c.1-.97-.6-1.83-1.57-1.93-.07,0-.15-.01-.22,0-.87.03-1.65.55-2,1.35-.21-.79-.94-1.33-1.76-1.3-.76.01-1.46.44-1.81,1.12v-1h-1.52l-.04,6.23ZM43.77,55.6h1.55v-3.12c.39.43.95.67,1.53.67,1.89,0,2.87-1.31,2.87-3.25s-1-3.25-2.87-3.25c-.6-.02-1.18.26-1.53.75v-.65h-1.55v8.85ZM46.63,51.83c-.81,0-1.45-.68-1.45-1.93s.64-1.9,1.45-1.9,1.46.67,1.46,1.92-.65,1.91-1.46,1.91ZM53.96,53.15c1.79.03,3.27-1.4,3.3-3.2s-1.4-3.27-3.2-3.3c-1.79-.03-3.27,1.4-3.3,3.2,0,.02,0,.03,0,.05-.11,1.68,1.16,3.13,2.84,3.25.12,0,.24,0,.36,0ZM53.96,51.83c-1,0-1.57-.89-1.57-1.93s.57-1.9,1.57-1.9c.94.06,1.65.88,1.59,1.82,0,.03,0,.07,0,.1,0,1.02-.58,1.91-1.58,1.91ZM58.56,53.05h1.55v-2.23c0-2,.78-2.78,1.68-2.78.23,0,.46.05.65.18l.29-1.44c-.25-.08-.5-.12-.76-.13-.78.02-1.48.45-1.86,1.13v-1h-1.55v6.27ZM65.03,53.15c.75.03,1.47-.31,1.93-.9l.17.8h1.27v-3.76c.15-1.31-.78-2.49-2.09-2.64-.19-.02-.38-.02-.56,0-1.12-.08-2.14.66-2.4,1.75l1.31.3c.16-.45.61-.74,1.09-.7.58,0,1.1.26,1.1.92v.28h-1.1c-1.61,0-2.63.81-2.63,2.06-.06.98.68,1.83,1.66,1.89.08,0,.17,0,.25,0ZM65.44,51.83c-.35.04-.66-.21-.7-.56,0-.02,0-.04,0-.05,0-.57.41-.82,1.07-.82h1v.13c-.03.73-.64,1.31-1.37,1.3ZM70.8,45.94c.55,0,1-.45,1-1s-.45-1-1-1-1,.45-1,1,.45,1,1,1ZM70.02,53.05h1.55v-6.3h-1.55v6.3ZM73.28,53.05h1.55v-2.51c0-1.66.69-2.56,1.44-2.56.52,0,.9.29.9,1v4h1.55v-4.5c.08-.97-.65-1.83-1.63-1.9-.1,0-.21,0-.31,0-.81,0-1.57.43-2,1.12v-1h-1.5v6.35ZM86.07,49.77c.1-1.61-1.12-3.01-2.73-3.11-.07,0-.14,0-.21,0-1.79.14-3.14,1.71-2.99,3.51.13,1.6,1.4,2.87,2.99,2.99,1.26.09,2.42-.66,2.87-1.83l-1.25-.47c-.26.61-.87,1.01-1.53,1-.81.02-1.48-.62-1.5-1.43h4.35v-.65ZM81.76,49.18c.11-.68.69-1.17,1.37-1.18.69,0,1.28.51,1.35,1.2l-2.72-.02ZM86.61,53.68h1.49l5.45-10h-1.5l-5.44,10Z"/>
</svg>