<svg id="Calque_1" xmlns="http://www.w3.org/2000/svg" version="1.1"  class="w-32 fill-stone-400 hover:fill-black" viewBox="10 8 60 12">
    <path d="M22.57 13.21v6.32h-1.93V15.4c0-2.4-1.66-2.78-1.66-2.78a3.11 3.11 0 0 0-1.67 3v3.88h-1.93v-3.9a3.11 3.11 0 0 0-1.67-3s-1.66.38-1.66 2.78v4.13h-1.93v-6.3H11a5.9 5.9 0 0 1 2.75-3.09 7.68 7.68 0 0 1 2.64 3.09A7.61 7.61 0 0 1 19 10.12a5.9 5.9 0 0 1 2.75 3.09Zm1.15 6.94h1.51l5.47-10h-1.51Zm8.64-7.76a1 1 0 1 0-1-1 1 1 0 0 0 1 1Zm-.77 7.14h1.55V13.2h-1.55Zm3.27 0h1.56v-2.32c0-1.89.6-2.78 1.36-2.78.47 0 .78.24.78.88v4.22h1.56v-2.46c0-1.78.61-2.64 1.36-2.64.47 0 .78.24.78.88v4.22h1.55v-4.48a1.76 1.76 0 0 0-1.88-2A2.27 2.27 0 0 0 40 14.41a1.74 1.74 0 0 0-1.77-1.31 2.08 2.08 0 0 0-1.81 1.12v-1h-1.56Zm16.34-3.3a2.94 2.94 0 0 0-2.94-3.13 3 3 0 0 0-3 3.26 3 3 0 0 0 3 3.27 2.86 2.86 0 0 0 2.87-1.85l-1.26-.46a1.63 1.63 0 0 1-1.53 1 1.46 1.46 0 0 1-1.5-1.43h4.36Zm-4.32-.59a1.41 1.41 0 0 1 1.38-1.21 1.36 1.36 0 0 1 1.35 1.21Zm8.46 4a2.85 2.85 0 0 0 2.88-1.81l-1.4-.56a1.57 1.57 0 0 1-1.48 1c-1 0-1.45-.82-1.45-1.94s.48-1.93 1.45-1.93a1.57 1.57 0 0 1 1.48 1.05l1.4-.57a2.85 2.85 0 0 0-2.88-1.81 3 3 0 0 0-3.08 3.26 3 3 0 0 0 3.08 3.3Zm3.34.52h1.51l5.46-10h-1.5Z"></path>
</svg>