<?xml version="1.0" encoding="UTF-8"?>
<svg id="Calque_1" xmlns="http://www.w3.org/2000/svg" viewBox="0 0 1026.67 422.3">
  <defs>
    <style>
      .cls-1 {
        fill: #fefefe;
      }
    </style>
  </defs>
  <path class="cls-1" d="M739.64,40.8c5.1,2.75,5.18,8.82,7.78,13.28-.48,2.18,1.37,3.55,2.11,5.26-1.54.56.08,2.26-1.46,2.83.73,1.79-1.3,2.43-.65,4.21-2.83,2.35-3.64,7.93-8.42,6.98-1.61,1.28-3.47,1.61-5.58,1.45-1.53-.73-2.92-1.79-4.62-2.11-1.37-.73-2.75-1.46-4.21-2.11-2.67-.8-.4-3.72-2.1-4.93.08-3.73-.49-7.78,2.1-10.52-.98-2.51,3.08-2.04,2.11-4.54.72-1.69,1.45-3.23,2.09-4.93-.56-1.54.98-2.34,1.47-3.48,1.7-.41,3-2.03,5.26-1.37.41-.9,1.3-.73,2.1-.73.41.89,1.3.73,2.02.73Z"/>
  <path class="cls-1" d="M933.96,104.27c1.05-.32,1.37.98,2.11,1.37-.09,1.79,1.13,3,.73,4.94,2.1,1.71-1.7,7.7,3.48,6.32.57-1.54,2.27.08,2.83-1.46,1.54-.08,3.32.41,4.21-1.37,1.62-.08,3.48.24,4.86-.33.41.57,1.13.25,1.78.33,1.39-1.45,4.21.08,5.59-1.37h9.15c.48,1.45,2.26-.08,2.83,1.37,2.02-.33,3.49.64,5.26.72,1.46.98,3.49.82,4.86,2.11,2.83.4,5.18,1.94,8.42,1.37,1.7.73,3.25,1.37,4.94,2.1,2.51.09,4.21,2.36,6.32,3.48,3.4,2.19,5.82,4.78,8.74,8.1,1.05,1.62,1.87,3.4,3.48,4.86.48,3.15,2.43,5.67,3.57,8.43,0,2.25,2.18,3.47,1.37,5.98,1.45.58-.08,2.27,1.37,2.83-.73,2.51,1.54,3.73.73,6.32,1.47,1.21-.08,3.65,1.37,4.86.81,2.43,1.3,4.94,1.06,7.77,1.53,1.06-.08,3.48,1.45,4.53-.8,2.51,1.47,3.81.65,6.32,1.54.98-.08,3.25,1.46,4.21.33,7.76-.41,16.11-2.11,23.47.65,2.04-1.22,3.81-1.05,6-.65.57-.33,1.62-.41,2.43l.73.72c-1.22,1.06-2.19,2.19-1.79,3.81-.08,1.37.33,3.73-.33,5.26-2.17,1.37-.08,4.38-1.77,5.99.82,3.89-1.45,6.32-.65,10.21-1.54.48.08,2.26-1.45,2.75,1.37,2.75-2.36,3.31-2.11,5.67-1.45,3.15-4.78,1.7-6.32,4.86-2.11-.81-2.75,1.54-4.86.73-.48.88-1.3.73-2.11.73-1.78-.49-2.83-2.43-4.2-3.57-.49-2.51-.49-5.26-1.05-7.7l.72-.72c.08-3.57-.32-7.45.33-10.85,1.2-.97.41-2.75,2.1-3.48-.8-2.11,1.46-2.83.65-4.94l.73-.73v-9.48c1.3-.64.49-2.34.73-3.48l-.73-.73c.9-.4.73-1.3.73-2.1-1.28-2.11-.48-5.1-.73-7.7.9-.41.73-1.3.73-2.1-1.28-1.06-.48-3.08-.73-4.53,1.05-1.94,1.05-5.11,0-7.05.24-2.1-.56-4.61.73-6.32l-.73-.64c.32-.5.98-.82.73-1.47-.24-1.37.57-4.2-.73-5.59.82-2.91-1.45-4.44-.73-7.36-1.45-.98.17-3.25-1.37-4.21.8-2.51-1.47-3.81-.65-6.31-1.46-2.43,0-6.16-1.77-8.43.8-1.78-1.54-2.11-.74-3.89-1.62-2.34-2.75-4.53-5.58-5.58-1.62.8-1.95-1.46-3.48-.73-2.51-1.62-5.27-4.7-8.42-2.76-1.54-1.69-3.97-.89-5.68-2.09-.64.08-1.3-.08-1.7-.73-1.87,1.53-3.8-.09-5.66,1.37-3.81-.4-6,3.08-9.8,2.83-1.46.98-3.48.9-4.93,2.11-2.59-.08-3.97,2.91-6.65,2.83-2.42,2.27-5.5,3.24-8.09,5.27-.64-.09-1.3.08-1.7.65-.24,1.85.56,4.2-.73,5.66v11.17l-.64.73v13.68c-1.53.73.08,2.84-1.45,3.48-.25,2.11.64,4.7-.65,6.32-.56,3.16-1.3,5.43-2.51,8.42-.08,1.62-2.34,2.26-2.42,3.89-.33,1.45-2.11-.08-2.43,1.37-3.97.65-6.07-3.24-9.15-4.93.81-2.43-1.45-3.49-.73-5.92-1.05-1.7-1.05-4.69,0-6.31.32-2.11-.57-4.7.73-6.32.09-1.05-.25-3.24.33-4.54,2.99-7.36,1.94-16.51,3.15-24.61-.56-1.86-.56-3.31,0-5.26,1.54-.64-.09-2.75,1.45-3.48-.32-1.13.58-2.83-.72-3.48,2.51-4.86.97-11.5,1.37-17.17,1.3-2.11.48-5.18.72-7.77-1.37-1.95,1.87-3.65.74-6.32.8-.4.65-1.3.65-2.1,1.62-1.54,3.08-3.4,5.26-3.48,1.7-.82,5.09-1.7,6.31.72Z"/>
  <path class="cls-1" d="M725.64,103.87c.4.65,1.13.32,1.77.4l.33-.4c2.67,2.19,3.56,5.1,4.21,8.1,2.51,3.4,1.22,7.53,1.05,11.58.17,4.21-1.7,8.42-1.05,13.28l.72.73c-1.54,2.09.08,5.58-1.37,7.7v13.02c-1.05,1.62-1.05,4.62,0,6.32-1.05,1.86-1.05,5.01,0,6.96.25,2.91-.64,6.31.65,8.82-.82,2.26,1.54,3.32.72,5.59,1.45,1.37-.08,4.21,1.37,5.58-.8,1.62,1.54,1.94.74,3.57.08,1.94,2.35,1.78,3.47,2.76.49-.9,1.3-.65,2.11-.65,2.43-3.89,6.39-3.98,9.15-7.05,1.62.57,2.92-1.94,4.2,0,1.31-.16,2.19.73,3.17,1.37,0,.82-.16,1.69.64,2.11-.24,2.5.65,5.34-.64,7.36-.65,4.06-3.89,7.62-7.37,9.8-4.93,5.03-11.01,7.45-17.57,8.42-.82,0-1.62.25-2.11-.64-2.18-.48-5.34,1.13-6.64-1.47-2.43.33-3.4-3-5.58-3.48-2.67-2.27-4.54-4.78-5.67-7.7-3.48-.16-1.14-4.04-2.76-5.66.73-2.59-1.53-3.97-.72-6.64-1.47-.98.08-3.25-1.37-4.21.64-2.59-1.22-4.21-1.05-6.65.32-8.98-.9-20.72,1.05-29.46v-23.48c1.45-2.43-.09-6.31,1.37-8.74-.41-4.7,3.23-7.45,4.93-11.26.65-.97,2.11-1.62,2.11-2.83,1.78-.97,3.4-2.59,5.59-2.76.48-1.37,1.86-.48,2.83-.72.33.64,1.3,1.05,1.71.32Z"/>
  <path class="cls-1" d="M629.94,114.07c1.53-.16,2.59-2.43,3.8-2.84,2.51-2.75,5.99-2.83,8.42-5.59.82,0,1.69.17,2.1-.72,2.51,0,4.62-.65,6.32-2.11,1.78.08,3-1.14,4.93-.64,1.78-2.11,3.08,1.05,5.26,0,1.62.97,3.65.72,4.94,2.75,3.32,1.14,4.05,6.07,8.34,4.93,4.45-.33,6.89-5.26,8.1-8.74,1.2-1.37.08-2.51,0-3.88-.9-1.79-1.14-3.81-1.06-6-1.62-1.05-1.86-2.75-2.83-4.21-2.19-1.62-4.63-2.43-6.98-3.47-1.69-.33-3.39-.41-4.93-1.37-1.37.24-3.24-.65-4.21.65-3.07-1.06-4.53,1.85-7.36,1.45-1.95,1.45-5.1-.08-6.98,1.37-2.42-.24-4.52.32-6.71.73-3.08,1.62-6.48,2.19-9.07,4.86-1.45.73-2.83,1.47-4.21,2.11-1.87,1.69-4.21,2.35-5.99,4.21-1.3.97-2.92,2.19-3.89,3.15-2.19,1.22-4.29,3.81-4.86,6.32-2.35,2.26-2.59,5.42-4.94,7.76,0,1.54-1.37,2.43-1.05,4.21-1.46,2.84-3.23,5.67-3.48,9.07-1.7,4.61-.08,9.56,1.37,13.68,2.26,2.59,3.32,5.5,5.59,8.1,2.03-.16,2.75,2.59,4.61,2.75,1.06,2.19,3.25,1.45,4.86,2.11,1.71.73,3.33,1.46,4.95,2.11,1.85.48,3.8.97,5.58,1.45,1.53,1.06,3.25,1.39,4.94,2.11,6.07,3.4,13.11,4.21,18.62,9.07,3.48.89,2.75,4.78,5.26,6.71.33,3.65-.4,6.96-2.11,9.8.25,2.11-.88,3.56-2.5,4.93-.98,4.29-4.46,6.81-7.7,10.12-3.97,1.87-7.21,5.1-11.9,4.94-1.62.57-3.89,1.87-5.26.65-6.08.73-11.18-.65-15.47-4.21-1.95-.64-3.25-2.75-4.94-4.12-4.61-4.21-.73-11.9-5.91-15.79-.48-2.83-3.64-2.1-4.93-4.2-2.75.24-6.07-.65-8.43.65-2.59.65-3.39-.73-5.26-2.11-1.13.72-2.59.72-3.48,2.11-1.78.65-3,2.59-4.93,2.83-3.97,4.14-8.83,6.07-13.27,9.15-.98.25-2.27-.65-2.84.65-2.34-.48-3.89.82-5.59,1.79-2.59.08-3.89,3.15-6.72,2.42-1.37,1.54-4.2-.08-5.58,1.47h-11.58l-.65-.73c-3.97.89-6.56-1.53-9.88-2.11-1.79-1.62-2.67-3.31-4.86-4.21-1.46-1.77-2.75-3.72-4.61-5.26.08-.73-.09-1.3-.65-1.79-.16-2.18-1.86-3.72-2.83-5.59.98-2.09-1.69-2.75-1.37-4.53-1.54-.97.08-3.23-1.46-4.2.08-2.51-1.13-4.38-.65-7.05-.88-.4-.72-1.3-.72-2.09-1.45-1.22.08-3.65-1.37-4.95.4-.81,1.3-.65,2.09-.65,1.95-1.53,5.1.09,6.98-1.45,2.59.65,4.21-1.05,6.71-.64.64-1.54,2.75.08,3.48-1.45,1.78,0,3.16-1.06,4.93-1.06.9-1.45,3.25.16,4.21-1.37,2.42.81,3.48-1.45,5.91-.73,1.22-1.45,3.72.16,4.94-1.37,2.51.81,3.72-1.46,6.31-.72.49-1.47,2.26.16,2.76-1.39,1.77.65,2.51-1.37,4.21-.73.98-1.45,3.32.16,4.21-1.37,2.51.8,3.56-1.46,6-.73,1.3-.65,2.51-1.54,4.21-1.39,2.43-.16,3.89-2.59,6.32-2.83,1.3-2.11,3.56-2.11,4.93-4.13.49-2.59,4.78-3.57,3.81-6.71,1.37-1.94.48-4.63.73-6.97-1.13-1.7-.65-3.97-1.77-5.67-2.76-11.01-11.5-19.02-20.01-27.37-1.2-1.3-2.75-1.62-4.2-2.42-1.94.8-2.43-2.11-4.21-2.11-.9-.25-2.27.64-2.75-.73-1.7-.32-3.4-.4-4.94-1.37h-9.07c-1.62,1.53-4.44-.09-5.99,1.37-2.75-.24-4.45,1.95-7.04,2.11-1.7,3.07-4.95,2.58-6.96,4.94-1.45.72-2.83,1.37-4.21,2.09l-6.71,7.05c-3.24.48-2.02,5.17-5.59,5.26-.72,3.47-4.13,5.9-4.93,9.47-.57,3.8-4.3,6.32-4.86,10.12-1.22,4.44-5.84,7.53-4.63,12.95-1.45.97.16,3.32-1.37,4.21.82,4.37-1.45,7.28-.73,11.58,1.54,1.3-.08,3.72,1.47,4.93-1.22,4.86,2.26,7.76,1.05,12.62,1.45.98-.08,3.24,1.37,4.21.33,2.03.49,4.14,1.37,6-.73,2.1,1.54,2.75.73,4.85,1.53.57-.09,2.26,1.37,2.84.73,2.11,1.45,4.21,2.11,6.31.72,2.84,3.15,4.7,4.21,7.37,2.11,1.3,2.11,3.57,4.21,4.86,1.54,2.59,4.12,5.18,6.71,6.72,3.73,3.72,8.43,5.5,13.29,6.64,3.32,1.13,5.91-.48,9.88,0,1.05,1.3,2.99.41,4.54.73,1.62-1.37,4.21-.48,6.32-.73.48-1.3,1.86-.4,2.75-.73,1.3-1.45,3.72.09,4.93-1.37,2.76.25,4.46-1.94,7.05-2.1,4.53-1.54,8.49-4.46,12.95-6.32,2.68-2.36,5.67-3.56,8.1-6.64,4.37-2.1,4.69-7.21,7.7-10.52h3.15c2.19,1.62.09,5.1,1.79,7.05-.81,2.42,1.45,3.47.65,5.91.16,1.85,2.35,2.91,2.1,4.94,3.08,2.59,2.19,6.88,6.31,9.06,2.04,4.7,7.05,5.27,10.21,8.83,1.7-.65,2.43,1.37,4.2.64,1.71,1.46,4.71,0,6.32,1.78,1.54-1.3,2.43.98,4.22.33,1.22-1.3,3.24-.41,4.86-.65.65-1.54,2.59.08,3.15-1.46,2.43-.33,4.86-.41,7.05-1.37,1.3-.33,2.51-1.78,3.89-1.05,1.3-.65,2.51-1.13,3.8-1.77,3.48-1.71,7.04-3.09,9.88-6.32,3.47-.98,5.09-4.21,8.01-6.64-.33-2.67,3.89-3.57,3.56-6.32,2.84-2.43,2.67-6.32,5.59-8.75-.65-1.78,1.37-2.42.65-4.21.73-1.3,1.62-2.59,1.46-4.21,1.95-2.03-.64-3.97,0-6.32,1.86-1.69-.64-4.13.65-5.58-.33-3.49-1.95-6.32-2.76-9.48-1.94-1.06-1.62-3.16-3.47-4.21-1.22-1.86-2.43-3.81-3.57-5.67-2.11-.24-2.43-3.08-4.21-3.48-2.75-2.11-5.91-3.15-8.75-5.26-1.62.81-1.94-1.46-3.48-.72-1.45-.66-2.83-1.39-4.21-2.11-3.07-.48-5.74-2.1-8.41-3.49-1.62.82-1.94-1.45-3.57-.72-1.38-.9-3.08-1.3-4.53-2.11-4.46-.09-8.75-2.11-11.26-5.58-.16-2.91.16-5.58,1.79-7.7.48-4.12,5.1-7.04,8.1-9.47ZM511.4,121.77c.16-1.54,1.13-2.76,1.69-4.21,1.79-3,4.94-5.35,7.38-8.02,1.05.17,1.85-.32,2.51-1.05,2.11-3.81,6.32-6.88,10.85-7.05.89-1.05,3-1.05,3.88,0,4.21.09,8.59-.4,11.9,1.79,1.95,0,3.25,1.37,4.86,2.1,1.94,2.67,4.21,5.35,5.26,8.42,1.3,2.02,2.83,3.89,3.15,6.31-1.2,1.47-3.64-.16-4.84,1.39-3.01-.81-4.78,1.45-7.77.73-1.22,1.45-3.65-.16-4.86,1.37-2.27-.81-3.32,1.46-5.58.73-.58,1.47-2.35-.16-2.84,1.39-6.07-.65-11.49,2.34-17.57,2.83-3.4.73-6.96,1.22-10.84,1.05-.08-3,1.3-5.42,2.83-7.76Z"/>
  <path class="cls-1" d="M480.47,190.18l-3.47-2.1c-4.14-1.54-6.16,2.26-8.75,4.53-1.79,1.62-4.05,2.03-6.32,2.51-2.11,1.05-5.59,1.05-7.7,0-1.94.24-2.99-1.7-4.93-1.45-2.51-3.97-6.23-7.53-7.7-11.91-.33-1.13.57-2.83-.73-3.48-.65-1.87-.8-3.89-.73-6-1.47-2.83.08-7.04-1.37-9.79.73-4.37-1.22-7.78-1.05-11.98-1.31-2.27-.42-5.35-.74-8.02-1.45-1.62.08-4.37-1.37-5.99,1.05-1.3-2.1-2.51,0-3.81-1.3-1.45-.4-3.8-.73-5.66-.81-.41-.65-1.3-.65-2.11.16-2.18.16-3.15.65-5.26-1.3-1.62-.41-4.21-.65-6.32,1.45-1.22-.09-3.64,1.37-4.86-.8-5.51,1.45-9.64.73-15.14,1.47-2.36-.08-6,1.39-8.42l.32-8.02c1.37-.97.48-2.83.73-4.2,1.3-1.7.41-4.21.73-6.32,1.3-.56.4-1.86.65-2.83,1.54-1.95-.08-5.1,1.45-6.96-.8-2.51,1.47-3.57.65-6,1.54-.72-.08-2.83,1.46-3.48,0-2.51.65-4.61,2.11-6.31-.33-3,3.4-4.29,2.11-7.78,1.45-.48-.09-2.27,1.37-2.75.48-2.11.33-4.63,2.84-6-.74-1.77,1.28-2.43.64-4.21,1.53-.98-.09-3.23,1.45-4.21,0-.8.16-1.61-.72-2.1.64-2.99-.98-5.18-1.37-7.7-1.95-1.93-4.21-3.07-6.32-4.52-.81,0-1.7.16-2.11-.73-1.78-.09-3.23-1.06-5.26-.73-3.15,1.79-7.29,1.3-9.47,5.26-1.94,3.64-3.81,7.21-4.63,11.26-1.2,1.62-.4,4.12-2.09,5.59-.33,1.7-.41,3.4-1.37,4.93-.08,2.11-2.03,3.49-1.37,5.92-1.54.56.08,2.34-1.47,2.83.17,1.77-1.13,2.99-.65,4.94-1.53.97.08,3.23-1.45,4.21.65,1.69-1.38,2.43-.65,4.21-2.67,12.07-4.78,24.37-6.32,36.75l.33.41c.24.57-.33.97-.65,1.39l.65.72c.24.58-.33.98-.65,1.37.73,3.25-1.54,5.18-.73,8.43l-3.48,2.09c-1.86-.16-3.97.33-5.26.33-1.86,1.94-5.03.49-6.72,2.84-2.02-.65-2.51,2.02-4.53,1.37-5.91,2.83-11.66,5.66-17.57,8.42-.65.48-1.05,1.7-2.1,1.45-2.02,1.39-3.08,2.76-4.86,4.54-3.4,1.22-3.08,5.5-6.73,7.04-.8,2.43-3.97,3.8-4.86,6.32-1.29,3.41-2.35,6.88-4.94,9.8.82,1.54-1.45,1.94-.65,3.48-.97,1.78-.8,3.97-2.83,5.26.73,1.78-1.3,2.43-.73,4.21-1.46,1.37.08,4.21-1.38,5.59-.56,5.58-.56,11.66,0,17.24,1.3,1.37.4,3.72.72,5.58,1.47,1.37-.16,4.21,1.39,5.59-.33,3.4,1.53,5.99,3.48,8.42-.4,2.99,2.91,3.4,3.49,5.99,2.99,2.42,5.26,6.71,9.15,6.96,1.7.72,3.23,1.46,4.93,2.11,1.94-1.94,3.56.88,5.91,0,.98-1.47,3.24.16,4.21-1.39,1.87-.4,3.81-.97,5.68-1.37l4.84-2.83c1.47.73,1.79-1.3,3.17-.73,4.05-4.04,9.47-6.48,13.68-10.85,1.05-.89,2.19-1.3,2.51-2.75,3.48-2.26,6.32-5.9,9.38-8.82v-1.06c.9-1.2,2.11-1.53,3.57-1.37.65,1.3,1.54,2.51,1.38,4.21,2.75,3.48,3.97,7.7,5.99,11.58,2.67.4.56,3.39,3.15,4.21.41,1.93,3.08,2.99,3.49,4.85,2.11,1.87,3.89,4.53,6.32,5.67.96,1.53,2.67,2.67,4.52,2.75,1.7.73,3,2.1,4.94,2.1,2.11,1.39,5.18.49,7.7.73.56-1.3,1.86-.4,2.83-.73,1.53-1.61,4.77.65,5.99-2.1,1.94.82,2.42-2.1,4.21-2.1,1.3-2.11,3.56-2.11,4.86-4.21,3.89-1.22,3.56-5.42,6.31-7.7-.48-1.62.81-2.42,1.78-3.47.41-2.68.81-4.95-.41-7.38ZM408.98,163.13c-2.58,5.84-9.06,8.83-12.94,13.36-2.03,1.14-3.89,2.76-6,3.48-1.77.73-1.05,3.15-3.15,3.15-1.95,2.19-4.54,2.76-6.64,4.62-2.19,0-3.49,2.11-5.68,2.11l-.64.64h-10.93c-3.32-2.91-3.48-6.96-5.26-10.52-.25-1.46.65-3.48-.65-4.53.24-2.19-.65-4.94.65-6.64-.25-2.04.41-3.81.73-5.68.73-1.37,1.37-2.75,2.1-4.21,0-2.18,2.11-3.4,2.11-5.58,1.78-1.21,2.11-3.08,3.15-4.54,3.24-3.55,5.51-8.09,9.8-10.52-.32-.89.74-1.13,1.06-1.77,1.69-.98,3.24-1.87,4.94-2.83,1.05-1.87,3.15-1.54,4.21-3.49,4.2-1.05,6.79-5.82,12.3-4.52.65-1.54,2.76.08,3.49-1.39,2.83-1.2,2.27,1.71,2.83,3.16.81,3.4-.41,7.7,1.05,10.84.24,1.62-.65,3.65.65,4.86-.81,2.59,1.53,3.81.73,6.32,1.45,1.06-.08,3.56,1.37,4.61-.08,3.17,1.14,5.76.73,9.07Z"/>
  <path class="cls-1" d="M93.71,160.71l-.73-.73c-1.3-10.29-4.29-20.16-5.59-30.45-.41-4.86-5.91-7.53-8.74-11.25v-.73c-3.32-3.16-6.32-6.73-10.2-8.42-2.43-3.57-6.07-4.21-9.15-6.32h-1.37c-2.35-1.14-4.69-2.19-7.69-1.7-1.62,1.86-3.89-.89-5.27.64-2.51-.4-5.82.5-8.41-.32.56-1.37-1.47-1.77-.74-3.15-1.45-.98.09-3.25-1.37-4.21.4-2.59-.81-4.54-.73-7.05-1.37-2.67-3-5.34-3.48-8.42-.81-1.2-2.03-2.75-3.57-3.15-1.94-.4-3.32.73-4.52,2.11-1.39-.73-1.54,1.46-2.76,1.05-.48.73-1.7,1.06-1.45,2.11-2.68.81-.41,3.72-2.11,4.94v33.36l-.65,2.11c-1.62,2.27-3.47,4.45-3.56,7.37-.65,1.37-1.37,2.75-2.1,4.21.08,4.13,2.02,7.7,5.66,10.44,0,.8-.24,1.69.65,2.11-.25,2.5.64,5.34-.65,7.36.25,8.83-.64,17.98.65,26.32-.98,1.13-3,.8-4.21.41-2.1,1.2-3.72-.73-5.59-1.05-2.42,0-4.12,2.83-5.58,4.52-.57,7.06-.57,14.75,0,21.71l.65.73c.41,2.59.97,5.01.73,7.7.41,1.2,2.02,1.94,1.37,3.55,1.3,1.3.49,3.49.74,5.27,2.34,3.08,4.93,6.32,7.04,9.06,3.49.9,1.14,5.42,2.76,7.77-.24,1.37.65,3.24-.64,4.21.24.98-.65,2.27.64,2.75-.16.9.48,2.04-.64,2.51.24.9-.65,2.27.64,2.76v22.09l.73.73c-.25,1.38.56,3.23-.73,4.21,0,.82-.16,1.62.73,2.11-.25,1.62.56,3.64-.73,4.86.24,1.45-.56,3.24.73,4.2-.25,1.14.56,2.84-.73,3.56v12.24l.73.72c-.25,1.14.56,2.84-.73,3.49-.48,5.74,1.05,11.42,0,16.51,1.3,2.34.48,5.59.73,8.42-1.3,1.94-.5,4.61-.73,6.96.65.5.81,1.06.73,1.79-1.3,1.22-.5,3.23-.73,4.93-.16.97,1.7,2.02,0,2.75v24.21l.73.74c-.25.97.56,2.26-.73,2.83.24.89-.56,2.26.73,2.76-.08,7.04.24,14.25-.33,21.05l.33.32c-.25,1.22.56,2.84-.73,3.57,1.7,2.27-.4,6,1.78,8.02,3.4,3.48,7.7,4.62,11.17,7.77.98.24,2.36-.65,2.83.64l.73-.64c2.99.48,5.5-.65,6.96-2.83.98-1.38,1.37-3.08,2.11-4.54-.73-2.84,1.54-4.21.72-7.05,1.3-2.59.42-6.07.74-9.15-1.54-2.67.08-6.71-1.46-9.38v-14.74c-1.45-.56.08-2.34-1.37-2.83.4-3.4-1.14-7.6,1.37-10.2-.98-.74-1.05-1.79-1.37-2.76,1.37-2.42.16-5.83,1.05-8.42-.8-1.13,0-2.51.33-3.57-1.3-1.05-.41-2.99-.65-4.52-2.34-4.46,1.62-8.83-.72-13.28,1.45-1.7-.08-4.7,1.37-6.31v-13.04l.72-.65v-9.88l.74-.65-.74-.73c-.24-.65.33-.98.74-1.37l-.74-.73v-15.79l-.72-.73c0-.73-.16-1.62.72-2.1v-19.91l.74-.73c-.41-.48-.98-.81-.74-1.37,2.11-1.86-1.05-3.4,0-5.67,1.47-.48-.08-2.27,1.39-2.75,0-3.57-.49-7.45,3.15-9.15,1.62-.17,2.99-.9,4.21-2.11.9-1.45,3.16-1.22,4.21-3.15,1.54,0,2.03-2.11,3.57-2.11,2.67-1.85,4.86-4.69,7.69-6.32,1.3-.16,2.19-1.54,3.48-1.78,1.78-3.15,5.26-5.42,7.37-8.42.16-1.7,2.67-2.43,2.83-4.21,2.19-1.22,1.3-3.64,3.49-4.86-.32-3.08,4.94-3.89,3.57-7.37.64-1.3,1.54-2.59,1.37-4.21,2.19-.73.4-3.08,2.42-3.87.98-3.73,1.87-7.45,2.84-11.18-1.22-1.37,1.14-1.94.32-3.57,1.54-2.34-.08-5.98,1.37-8.41,0-.74.24-1.62-.65-2.11-.16-1.05.25-1.77,1.06-2.42ZM74.02,162.49c-2.09,3.08-.16,6.56-1.7,9.79.73,1.95-1.54,2.59-.73,4.54-1.3.72-.49,2.43-.73,3.56-3.57,5.51-6.48,11.26-10.84,16.43-2.51,1.3-4.95,2.99-7.05,5.26-3.15.98-5.43,3.89-9.47,2.83.24-5.01-1.7-9.15-1.05-14.41-1.14-4.04-.73-9.07-.32-13.28-1.94-4.04-.73-9.38-1.05-14.09l.73-.64c-.9-.48-.73-1.37-.73-2.11,1.7-.81-.16-1.86,0-2.83v-8.75c-1.7-.8.16-1.85,0-2.83.24-1.86-.64-4.21.73-5.58-.41-4.05.64-7.38,0-11.26.88-1.37.97-2.67,2.75-3.15,1.46-.9,3.73.4,4.93-1.06,3.24-.98,4.93,1.71,7.7,1.79,1.53,1.62,3.24,2.42,4.93,3.48,3,3.16,3.89,7.21,7.37,10.21-.24,1.94,1.62,2.99,1.38,4.86,1.53.56-.09,2.34,1.45,2.83.24,1.3-.65,2.99.65,3.89-.16,3.64,1.79,6.56,1.05,10.52Z"/>
  <path class="cls-1" d="M246.56,187.34c.82-2.27-1.45-3.32-.64-5.59-.81-2.42-3.48-.57-4.62-2.1-2.75,1.13-5.34,2.91-8.01,4.21-2.19,1.78-4.93,2.19-7.37,3.48-2.26-.81-3.32,1.54-5.67.73-1.46,1.45-3.48.08-5.18,0-2.09-1.3-2.34-3.4-2.09-5.6-2.36-4.61,3.64-7.61,5.58-11.25.8-1.78,2.35-3.16,2.43-5.26,1.3-1.3.48-3.48.72-5.26-1.85-1.87-2.99-4.7-5.98-4.54-1.37,1.13-3.97.73-5.59.32v-3.89c-1.3-6.71-.49-15.13-.73-22.75-1.3-1.62-.41-3.97-.65-5.99-.25-.97,1.62-2.02,0-2.75.24-1.7-.65-3.73.65-4.93-.24-2.51.65-5.6-.65-7.7.73-2.59-1.54-3.81-.73-6.31-1.54-.65.08-2.59-1.38-3.17-.25-2.91-1.86-5.18-2.84-7.77-.48-.64-1.7-1.05-1.37-2.09-3.08-2.76-5.83-6.32-9.15-8.43-1.37-1.05-2.75-2.11-4.54-2.11-1.69-1.13-3.97-.56-5.66-1.7h-9.8l-.72-.72c-.41.64-1.05.81-1.7.72-1.94,1.3-4.86.09-6.32,2.43-2.18.9-3.8,3.25-5.67,4.94-.56,1.69-2.51,2.99-2.75,4.86-1.94,1.05-1.62,3.15-3.56,4.21-2.34,3.57-4.06,7.28-6.23,10.92-.42,1.13.08,2.59-1.06,3.49.73,2.27-1.53,3.32-.73,5.58.58,1.7,1.62,3.08,1.79,4.94,1.77.57,3.56,3.49,5.58,1.37,5.02,1.14,8.01-2.27,11.17-5.58,0-1.45,2.1-2.03,2.1-3.49,2.51-1.7,3-4.52,5.26-5.99.82-3.24,4.21-4.37,7.05-4.93,2.1-1.79,4.21.48,6.31.72.5,1.47,2.19.41,2.84,1.79.16,1.37,1.62,2.17,2.1,3.47,1.38,3.09-2.43,2.84-3.55,4.21-.73,0-1.62-.16-2.11.73-1.87,0-3.25,1.38-4.86,2.11-.8,0-1.69-.25-2.1.64-1.94-.4-3.16.81-4.93.73-1.54,2.19-4.38,1.3-6,3.48-4.37.16-7.11,4.04-11.17,4.93-.73.41-1.05,1.62-2.1,1.37-1.3,2.19-3.49,2.11-5.26,3.17-2.19,3.89-7.2,4.12-9.8,8.42-2.84.73-2.84,3.88-5.27,5.26-.56,1.62-2.75.64-2.5,2.43-1.62,1.54-2.26,3.57-4.21,4.94-.89,2.11-2.59,2.99-3.15,5.26-3.08,2.99-3.89,6.88-6.96,9.79,0,1.95-1.45,3.25-2.1,4.94,0,.82.16,1.71-.74,2.11.65,2.42-1.3,3.89-1.37,5.98-1.54,1.22.08,3.65-1.45,4.86v16.52c1.37,1.2.48,3.23.73,4.84,1.3.74.4,2.43.72,3.57,1.45.65-.08,2.75,1.37,3.49-.08,2.99,2.11,5.01,4.21,7.04.89,2.19,3.24,3.73,4.93,5.6,1.14-.17,1.62,1.13,2.43,1.78,1.86,1.14,3.8,2.34,5.59,3.48,1.7.33,3.48.41,4.93,1.37h9.8l.72-.65c5.68.08,11.42.24,15.79-2.83.65-.41,1.06-1.7,2.11-1.37,2.1-2.03,5.34-1.54,6.96-4.62,1.87-.16,1.95-2.26,3.57-3.15.49-1.53,2.67-.56,2.43-2.43l10.52-10.52c.48-3.41,4.37-1.79,5.58-4.86,1.78.48,2.11-2.34,3.89-1.78,1.3,1.38,1.86,3.08,2.84,4.53,2.34,1.62,2.5,4.06,4.85,5.59,1.3,3.16,4.71,4.21,7.05,6.32.8,0,1.62-.17,2.1.73,2.11-1.05,3.24,2.1,4.86,0,9.07,1.37,15.87-5.42,22.11-11.26.72-1.7,2.51-3.47,4.21-4.12,1.05-1.78,2.1-3.56,3.15-5.26,0-.81-.16-1.7.74-2.11-.24-1.2.65-2.83-.74-3.56ZM188.35,171.56c-1.45,1.54-4.37,1.45-4.86,3.89-1.53,1.94-2.67,3.07-4.61,4.53h-.65l-9.88,9.48c-.49,1.62-2.26,3.32-3.81,3.89-1.13.97-2.02,2.59-3.56,2.83-3.8,3.08-7.21,7.53-11.9,8.74-1.05,1.47-3.48-.08-4.54,1.37-2.83-.24-6.07.65-8.42-.72-2.67.72-1.86-2.43-3.88-3.17-.66-1.7-1.38-3.47-2.11-5.17-1.3-3.56-.4-8.02-.64-11.99.4-.81,2.09-2.11.64-2.75-1.37-4.52,2.51-6.88,2.11-10.92,1.93-2.43,1.69-5.76,4.94-7.7,1.13-1.86,2.34-3.8,3.47-5.59,1.47-1.86,4.29-3.15,4.21-5.67,2.67-2.09,4.38-4.29,7.37-5.58,3.8-.98,5.59-4.13,9.48-4.94,2.1-.64,4.21-1.37,6.31-2.11,1.14-.88,2.84-.8,3.89-2.1,2.67,1.05,3.57-2.43,6.32-1.37.98-1.46,3.24.08,4.21-1.37,1.62-.41,3.41-.49,4.86-1.46,2.1-.81,1.37,1.54,2.51,2.11v19.67c1.3.56.4,1.86.65,2.83-1.06,1.94-1.06,5.1,0,6.97.48,2.67-.57,4.77-2.11,6.32Z"/>
  <path class="cls-1" d="M923.12,57.96c-1.05-1.95-3.16-1.62-4.21-3.48-1.7-.24-2.92.65-4.21,1.37-5.18.33-8.1,5.84-12.62,7.7.32.89-.74,1.13-1.06,1.78-1.94,1.62-4.37,3.72-7.04,4.54-2.27.98-3.25,3.64-5.26,4.54.08,2.1-2.51,1.3-2.76,3.15-3.8,1.86-5.34,5.9-8.1,8.82.25,1.39-2.02,1.62-1.37,3.16-5.42,5.18-7.68,11.66-11.57,17.49h-1.37c-1.71-.65-3-2.11-4.95-2.11-1.37-.65-2.83-1.37-4.2-2.11-3.32.81-5.43-1.46-8.74-.64-2.84,1.45-7.05-.09-9.88,1.37-2.19-.25-3.15,2.34-5.58,1.37-2.83,2.91-7.3,2.75-9.8,5.66-2.76,1.71-5.51,3.24-8.1,5.6-2.43.88-3.89,4.04-6.32,4.93-1.69,2.11-3.23,3.97-5.58,5.26-.65-.4-.24-1.22-.32-1.78,1.06-1.95,1.06-5.1,0-7.04.48-2.03-1.86-2.76-2.83-4.21-1.39.33-3.25-.56-4.21.73-2.76-.81-3.89,2.11-6.32,2.11-2.1,3.97-6.71,3.15-8.09,7.36-7.13,4.21-9.8,12.14-14.74,18.22.98,2.43-1.61,3.4-1.37,5.58-.73,1.78-1.37,3.57-2.1,5.26.08,1.78-1.14,3-.73,4.94,1.37,1.22.48,3.24.73,4.94,1.45.97-.09,3.23,1.37,4.21-.73,1.87,1.54,2.59.73,4.54,2.36,3.64,2.51,8.26,4.95,11.9,2.75,5.27,4.44,11.51,10.52,14.74,1.45,2.02,3.89,3.07,5.91,4.52,2.26,1.87,5.26,2.04,7.77,3.57-1.54,1.94.08,5.1-1.47,6.97.9.48.73,1.37.73,2.1-1.54,2.51.09,6.32-1.37,8.83.24,1.14-.65,2.75.64,3.48-.4,1.94.82,3.15.73,4.93-2.83,2.35-5.02,6.07-8.43,6.96-3.55,4.7-9.31,8.82-13.67,13.68-.16,1.79-2.59,2.51-2.83,4.21-1.13,2.03-3.32,3.57-4.21,5.67-3.08,2.34-4.53,5.75-6.96,8.02.25,3.31-4.45,4.53-4.61,7.68-5.11,4.95-6.73,11.33-11.18,16.52-.16,2.43-2.67,3.89-2.83,6.32l-2.75,4.94c.24,2.02-1.95,3.08-2.11,4.86-1.37,1.47-1.7,3.24-2.51,4.93.82,2.19-1.45,3.09-.64,5.26-1.54.98.09,3.25-1.45,4.21.8,3.64-1.47,6.15-.65,9.8,1.3.73.41,2.35.65,3.49,2.17,1.77,1.3,4.93,3.56,6.72-.17,2.51,2.1,4.2,3.15,6.32,3.31,3.39,7.45,4.61,11.18,6.96h1.37c1.45.73,2.83,1.46,4.21,2.11,1.62-.74,1.94,1.53,3.55.72,1.06,1.22,2.68,1.13,3.81,2.11,1.95,0,3.25,1.37,4.94,2.11,2.83-.73,4.46,1.2,7.05,1.05.65,1.45,2.75-.08,3.47,1.37h9.47l.74.73c3.15-.08,5.74,1.14,9.06.73,2.11,1.45,5.67-.09,7.78,1.37.73,0,1.62.16,2.11-.73,1.05.32,2.5-.57,3.08.73,3.08-.25,6.56.65,9.15-.73,1.7,1.05,4.69,1.05,6.31,0,.81,0,1.71-.16,2.11.73l.73-.73c2.26.48,3.81-.74,5.9-.65,2.11-1.54,5.68.08,7.78-1.47,1.62.33,3.08-.32,4.54-.64,1.77-1.37,4.61-.08,5.98-2.51,1.62-.41,2.76-1.94,4.54-2.11,2.34-3.15,7.12-2.09,8.42-6.31,1.78-.17,2.43-2.59,4.21-2.76.41-.72,1.62-1.05,1.37-2.09,4.04-2.11,5.75-6.98,9.8-9.48.24-2.11,1.94-2.67,3.16-4.21.73-2.67,2.83-4.69,4.21-7.04-.58-1.78,1.45-2.43.72-4.2,1.53-.65-.09-2.76,1.37-3.49v-11.58l-.64-.73c.08-.56-.25-1.37.32-1.7l-.32-.4c.08-2.43-1.14-4.38-.73-6.97-1.3-.73-.41-2.42-.72-3.55-1.47-1.06.16-3.49-1.39-4.53.81-2.84-1.45-4.21-.73-7.05-1.45-.48.16-2.27-1.37-2.75.8-2.11-1.46-2.83-.73-4.95-1.47-.48.16-2.26-1.39-2.83.82-1.87-1.45-2.59-.72-4.53-1.37-2.92-2.11-6.07-3.15-9.07-.17-2.5-2.59-3.89-2.76-6.31-5.26-7.29-10.37-14.99-16.83-21.47-1.71-.64-2.43-1.3-3.89-2.75-1.71-.48-2.76-2.43-4.21-3.56,0-.73-.16-1.62.73-2.11,3.31-.73,6.15-2.67,9.47-3.48,2.43-1.54,5.58-3.64,6.32-6.64,1.46-6.15-1.95-10.36-6.32-14.09-3.81-1.13-5.91,1.87-8.75,2.84-2.17.17-3.8,1.87-5.66,2.84-3.41-.41-4.94,3.8-8.42,3.47-1.62.74-2.92,2.11-4.86,2.11-1.05,1.22-2.75,1.13-3.89,2.1-1.94,0-3.25,1.37-4.94,2.11-.73,0-1.62-.16-2.1.73-2.76-.81-4.21,1.45-6.96.64-.73-1.13-2.91-1.69-2.11-3.48-1.3-2.1-.48-5.18-.73-7.68,1.54-.58-.08-2.27,1.37-2.84-.4-1.94,1.87-1.94,2.83-2.84,1.13-.24,2.83.65,3.48-.64,2.67.4,4.62-.82,7.04-.74,1.62-2.42,4.94-.8,6.64-2.75,2.59.25,3.89-2.43,6.32-2.51,2.67-2.51,5.99-3.39,8.83-5.58,1.53-2.02,4.52-2.19,5.26-4.94,2.1-1.05,3.8-3.15,5.91-4.21.48-.65,1.7-1.05,1.45-2.1l6.97-7.37c.73-1.37,1.45-2.75,2.1-4.21,1.87-2.5,3.81-5.18,5.59-7.68-.65-1.79,1.37-2.43.72-4.21,1.87-1.87,1.95-4.38,2.84-6.65,2.26-3.8-.16-9.55,2.1-13.35h-.73c.73-5.92-3.48-13.6,2.43-17.89.88-3.32,2.59-6.4,4.93-9.07.16-1.94,3.32-2.67,2.83-4.93,2.68-3.49,5.68-6.96,9.07-10.2v-.65c.98-.73,1.62-2.11,2.84-2.11.57-.81,1.94-1.21,1.37-2.51,2.92-2.43,6.15-4.21,8.82-7.38,1.13.25,1.62-1.13,2.43-1.7,3.81-.41,6.24-4.05,9.15-6.72,1.63-.48.65-3,2.76-2.43l-.32-1.06c2.1-3.15,2.1-7.69,0-10.84ZM810.17,243.13c1.7.16,3.4-1.7,4.93,0,.98-.25,2.27.65,2.76-.73,1.45-.24,3.24.65,4.21-.65,1.62,1.62,4.86-.65,5.98,2.1,2.51.32,4.14,2.75,6.64,3.16,3.57,1.3,5.84,5.59,9.15,7.37.9,2.43,4.06,3.8,4.94,6.32.98,1.3,2.91,2.1,2.76,3.81,2.75,1.85,1.7,5.26,4.62,7.04.4,1.62,1.94,2.76,1.37,4.86,1.46.73-.08,2.83,1.37,3.57-.81,2.26,1.54,3.31.73,5.58,1.45,1.37-.09,4.21,1.37,5.58-.81,2.51,1.54,3.57.73,5.99,1.46.48-.08,2.26,1.37,2.83.41,2.51.98,4.94.74,7.7,1.05,2.1,1.05,5.58,0,7.69-.25,1.78.56,3.97-.74,5.26-.32,1.69-.4,3.4-1.37,4.93-.65,2.67-1.22,5.75-3.89,7.37-.8.58-1.21,1.37-1.05,2.43-1.3,1.06-2.26,2.83-3.81,3.16-1.62,2.26-3.23,5.26-6.71,4.54-1.46.98-3.23,1.05-4.86,1.45-.49.9-1.37.65-2.11.65-1.94,1.14-3.72,2.84-6.31,2.11-.98,1.53-3.24-.09-4.21,1.45-3.64.33-7.13.98-10.93.65-.65,1.37-2.34.48-3.48.72-1.95-1.05-5.1-1.05-7.04,0-1.14-.63-2.43-.8-3.81-.72-.81,1.69-1.87-.16-2.84,0-3.64.81-6.15-1.45-9.79-.65-.98-1.54-3.25.08-4.21-1.45-1.13-.24-2.83.65-3.47-.64-1.79-.33-3.97.56-5.26-.73-2.59.81-3.81-1.46-6.32-.73-1.21-1.45-3.72.17-4.94-1.37-3.31.49-5.58-1.87-9.15-1.05-.4-.9-1.3-.73-2.09-.73-3.25-2.19-7.93-3.65-9.07-8.02v-9.8c.97-1.53.89-3.56,2.09-4.93.33-2.84,1.87-5.18,3.49-7.38,0-1.93,1.37-3.24,2.11-4.94.88-1.13,1.05-2.5,2.42-3.47.81-1.79,2.42-3.17,2.51-5.26,1.53-3.01,2.83-6.08,5.91-8.43,1.45-1.05-.08-3.4,2.1-4.21-.25-1.22,1.7-1.54,1.47-2.83,1.94-1.37,2.5-3.4,4.2-4.86,0-1.53,2.11-2.02,2.11-3.55,6.96-7.77,14.82-16.44,23.15-22.43,1.87-2.67,4.94-3.4,6.64-5.9,1.87-1.05,3.57-2.43,5.59-2.84ZM857.53,138.93c.81,2.59-1.53,3.81-.73,6.32-.64,1.7-1.37,3.31-2.11,4.93-.08,1.28-1.05,2.75-.64,3.87-1.86,1.47-3.15,3.65-4.61,5.6-.9,2.42-4.06,3.87-4.86,6.31-2.83,3.32-6.16,5.51-9.47,7.68-1.79,3.09-5.03,2.59-7.05,4.95-2.75-.16-4.13,2.58-6.64,2.83-5.82,2.67-12.71,2.59-19.27,3.49-1.3-1.54-3.73.08-4.93-1.37-3.41-.32-6.24-2.02-9.15-3.57-3.17-1.62-3.25-4.86-5.92-6.96-1.05-2.75-3.72-4.78-3.15-8.09-.41-1.47-.98-2.92-.73-4.54-1.3-.56-.41-1.86-.73-2.83,1.54-.98-.08-3.24,1.47-4.21.97-2.92,2.02-5.75,4.53-8.09.98-1.62,1.86-3.25,2.83-4.86,2.59-1.06,4.21-4.71,6.98-5.26-.33,1.61-1.39,3.07-2.11,4.52v6.32c2.19,4.05,5.67,8.74,10.94,8.42,1.45-1.05,3.48-.8,5.18-1.37,4.2-3.24,9.15-4.85,13.35-8.09,2.36-2.11,6.15-.98,8.1-4.21,2.11-1.14,3.81-3.08,6.32-3.48,1.13-1.94,3.55-2.1,4.86-4.21,2.83-1.37,5.67-2.83,8.42-4.21,2.43.32,4.61-1.77,6.72,0,1.05-.16,1.77.24,2.43,1.05,1.46,1.22-.08,3.65,1.37,4.86-1.3,1.06,0,3.16-1.37,4.21Z"/>
</svg>